<svg xmlns="http://www.w3.org/2000/svg" viewBox="991 346.987 582.86 618.011">
  <defs>
    <style>
      .cls-1 {
        fill: none;
        stroke: #d80027;
        stroke-width: 6px;
      }
    </style>
  </defs>
  <g id="thumb-up-gesture" transform="translate(976.418 350)">
    <g id="Groupe_3" data-name="Groupe 3">
      <path id="Tracé_5" data-name="Tracé 5" class="cls-1" d="M17.582,612h133.1V305.859H17.582ZM84.067,330.484A35.22,35.22,0,1,1,48.854,365.71,35.222,35.222,0,0,1,84.067,330.484Z"/>
      <path id="Tracé_6" data-name="Tracé 6" class="cls-1" d="M588.179,317.14s43.578-105.3-99.629-79.111c0,0-88.454,18.528-98.637-8.512,0,0-7-20.525,25.536-59.577,0,0,72.109-80.109-9.5-158.214,0,0-41.562-35.04-48.077,16.026s1,54.074-27.04,93.632c0,0-78.9,76.1-95.276,134.682,0,0-21.809,66.472-58.253,67.55V554.944c12.146-.226,51.325-1.75,92.807,12.7,0,0,75.843,18.042,125.244,18.042,0,0,100.161,2.329,130.708-21.37,0,0,26.794-19.859,21.3-45.894,0,0-5-17.144,8.146-27.04,0,0,38.287-24.2,19.593-62.579,0,0-9.816-17.53,5.89-32.537,0,0,23.074-17.783,7.168-39.559C588.159,356.692,577.551,338.057,588.179,317.14Z"/>
    </g>
  </g>
</svg>
